<?xml version="1.0" encoding="UTF-8"?>
<svg
  xmlns="http://www.w3.org/2000/svg"
  width="160"
  height="160"
  viewBox="0 0 42.333332 42.333333"
  version="1.1">

  <g id="layer">
    <path
      id="circle"
      style="fill:#000000;stroke:none;stroke-width:1.55769"
      d="M 21.16615 0 C 9.4917912 0 0 9.4917912 0 21.16615 C 0 32.840508 9.4917912 42.33385 21.16615 42.33385 C 32.840508 42.33385 42.33385 32.840508 42.33385 21.16615 C 42.33385 9.4917912 32.840508 2.5066369e-15 21.16615 0 z M 19.107361 7.3762939 C 22.692608 7.5319507 26.317666 9.1887346 29.228707 12.807487 C 36.627624 22.005173 27.622937 34.456989 17.441829 29.199251 C 6.8078366 23.707633 14.610408 8.2738502 25.886792 12.487093 C 26.183089 12.597796 26.344748 12.648424 26.370483 12.637472 L 26.371517 12.637472 L 26.372034 12.636955 L 26.37255 12.636955 L 26.37255 12.636438 L 26.373067 12.636438 L 26.373067 12.635921 C 26.373127 12.635836 26.373893 12.635624 26.374101 12.635404 L 26.374101 12.634888 L 26.374101 12.634371 L 26.374618 12.633854 L 26.374618 12.633337 L 26.374618 12.632304 L 26.374618 12.631787 C 26.374539 12.631496 26.373728 12.63002 26.373584 12.62972 C 26.354884 12.58913 26.061395 12.422942 25.486816 12.126908 C 14.996428 6.7221003 4.6056404 19.168858 11.34401 29.200285 C 18.387799 39.68639 31.154279 37.68552 37.421488 30.063281 C 34.278508 35.803224 28.18389 39.6875 21.16615 39.6875 C 17.901253 39.6875 14.836211 38.846951 12.175484 37.369812 C 9.0267259 35.335302 6.4454856 32.181723 4.9790243 27.893905 C 1.0423636 16.383422 9.9450632 6.9785045 19.107361 7.3762939 z M 21.723739 13.581083 C 19.543276 13.67176 17.593099 14.726708 16.311666 16.321484 C 14.982772 17.975328 14.373398 20.209493 14.972213 22.549011 C 16.25774 27.571458 22.277244 29.656173 26.419576 26.51311 C 31.041082 23.006468 29.548428 15.292692 23.964945 13.82758 C 23.203194 13.627696 22.450559 13.550858 21.723739 13.581083 z" />
  </g>

  <style>
    @media (prefers-color-scheme: light) { :root { filter: none; } }
    @media (prefers-color-scheme: dark) { :root { filter: invert(100%); } }
  </style>
</svg>
